<svg xmlns="http://www.w3.org/2000/svg" width="96" height="96" viewBox="0 0 96 96">
  <defs>
    <linearGradient id="g" x1="0" x2="1" y1="0" y2="1">
      <stop offset="0" stop-color="#7b61ff" />
      <stop offset="1" stop-color="#ad83ff" />
    </linearGradient>
  </defs>
  <rect width="96" height="96" rx="28" fill="url(#g)" />
  <path
    d="M27 28h42c4.418 0 8 3.582 8 8v24c0 4.418-3.582 8-8 8H27c-4.418 0-8-3.582-8-8V36c0-4.418 3.582-8 8-8z"
    fill="rgba(15,17,26,0.9)"
  />
  <path
    d="M32 36h32a4 4 0 0 1 4 4v16a4 4 0 0 1-4 4H32l-8 8V40a4 4 0 0 1 4-4z"
    fill="#fff"
    opacity="0.9"
  />
  <circle cx="38" cy="48" r="4" fill="#7b61ff" />
  <circle cx="48" cy="48" r="4" fill="#7b61ff" />
  <circle cx="58" cy="48" r="4" fill="#7b61ff" />
</svg>
